<?xml version="1.0" encoding="UTF-8" standalone="no"?>
<!-- Created with Inkscape (http://www.inkscape.org/) -->

<svg
   xmlns:dc="http://purl.org/dc/elements/1.1/"
   xmlns:cc="http://creativecommons.org/ns#"
   xmlns:rdf="http://www.w3.org/1999/02/22-rdf-syntax-ns#"
   xmlns:svg="http://www.w3.org/2000/svg"
   xmlns="http://www.w3.org/2000/svg"
   xmlns:sodipodi="http://sodipodi.sourceforge.net/DTD/sodipodi-0.dtd"
   xmlns:inkscape="http://www.inkscape.org/namespaces/inkscape"
   width="232.04039"
   height="80.406006"
   viewBox="0 0 232.04039 80.406005"
   id="svg4826"
   version="1.1"
   inkscape:version="0.91 r13725"
   sodipodi:docname="divvy_logo.svg">
  <defs
     id="defs4828" />
  <sodipodi:namedview
     id="base"
     pagecolor="#ffffff"
     bordercolor="#666666"
     borderopacity="1.0"
     inkscape:pageopacity="0.0"
     inkscape:pageshadow="2"
     inkscape:zoom="2.8"
     inkscape:cx="138.42568"
     inkscape:cy="-17.921992"
     inkscape:document-units="px"
     inkscape:current-layer="layer1"
     showgrid="false"
     fit-margin-top="0"
     fit-margin-left="0"
     fit-margin-right="0"
     fit-margin-bottom="0"
     units="px" />
  <metadata
     id="metadata4831">
    <rdf:RDF>
      <cc:Work
         rdf:about="">
        <dc:format>image/svg+xml</dc:format>
        <dc:type
           rdf:resource="http://purl.org/dc/dcmitype/StillImage" />
        <dc:title></dc:title>
      </cc:Work>
    </rdf:RDF>
  </metadata>
  <g
     inkscape:label="Layer 1"
     inkscape:groupmode="layer"
     id="layer1"
     transform="translate(-79.847918,-429.23846)">
    <g
       style="fill:#4d4d4d;stroke:none"
       id="g6054"
       transform="matrix(1.9999064,0,0,1.9999064,18.850909,-1570.2954)">
      <path
         sodipodi:nodetypes="sscccscssscscccsssccssccsssc"
         id="path6056"
         overflow="visible"
         display="inline"
         visibility="visible"
         d="m 36.000063,1000.3137 c -0.5523,0 -1,0.4477 -1,1 l 0,5.0242 -3,0 c -0.6233,0.01 -1.0081,0.537 -1,1 l 0,4.0242 c 0,4.6252 3.5093,8.4324 8,8.9376 l 0,7.0867 c 0,0.5523 0.4477,1 1,1 0.5523,0 1,-0.4477 1,-1 l 0,-7.0867 c 4.4907,-0.5052 8,-4.3124 8,-8.9376 l 0,-4.0242 c -10e-5,-0.5236 -0.4764,-0.9999 -1,-1 l -3,0 0,-5.0242 c 0,-0.5523 -0.4477,-1 -1,-1 -0.5523,0 -1,0.4477 -1,1 l 0,5.0242 -6,0 0,-5.0242 c 0,-0.5523 -0.4477,-1 -1,-1 z m -3,8.0242 14,0 0,3.0242 c 0,3.8953 -3.1047,7 -7,7 -3.8953,0 -7,-3.1047 -7,-7 z"
         style="color:#000000;text-indent:0;text-transform:none;direction:ltr;block-progression:tb;baseline-shift:baseline;display:inline;overflow:visible;visibility:visible;fill:#4d4d4d;fill-opacity:1;stroke:none;stroke-opacity:1;marker:none;enable-background:accumulate"
         inkscape:connector-curvature="0" />
    </g>
    <g
       style="fill:#4d4d4d;stroke:none;fill-opacity:1"
       transform="matrix(1.9999064,0,0,1.9999064,66.558103,-1570.2954)"
       id="g6088">
      <path
         inkscape:connector-curvature="0"
         style="color:#000000;text-indent:0;text-transform:none;direction:ltr;block-progression:tb;baseline-shift:baseline;display:inline;overflow:visible;visibility:visible;fill:#4d4d4d;fill-opacity:1;stroke:none;marker:none;enable-background:accumulate"
         d="m 36.000063,1000.3137 c -0.5523,0 -1,0.4477 -1,1 l 0,5.0242 -3,0 c -0.6233,0.01 -1.0081,0.537 -1,1 l 0,4.0242 c 0,4.6252 3.5093,8.4324 8,8.9376 l 0,7.0867 c 0,0.5523 0.4477,1 1,1 0.5523,0 1,-0.4477 1,-1 l 0,-7.0867 c 4.4907,-0.5052 8,-4.3124 8,-8.9376 l 0,-4.0242 c -10e-5,-0.5236 -0.4764,-0.9999 -1,-1 l -3,0 0,-5.0242 c 0,-0.5523 -0.4477,-1 -1,-1 -0.5523,0 -1,0.4477 -1,1 l 0,5.0242 -6,0 0,-5.0242 c 0,-0.5523 -0.4477,-1 -1,-1 z m -3,8.0242 14,0 0,3.0242 c 0,3.8953 -3.1047,7 -7,7 -3.8953,0 -7,-3.1047 -7,-7 z"
         visibility="visible"
         display="inline"
         overflow="visible"
         id="path6090"
         sodipodi:nodetypes="sscccscssscscccsssccssccsssc" />
    </g>
    <g
       style="fill:#4d4d4d;stroke:none;fill-opacity:1"
       id="g6092"
       transform="matrix(1.9999064,0,0,-1.9999064,42.319111,2509.1783)">
      <path
         sodipodi:nodetypes="sscccscssscscccsssccssccsssc"
         id="path6094"
         overflow="visible"
         display="inline"
         visibility="visible"
         d="m 36.000063,1000.3137 c -0.5523,0 -1,0.4477 -1,1 l 0,5.0242 -3,0 c -0.6233,0.01 -1.0081,0.537 -1,1 l 0,4.0242 c 0,4.6252 3.5093,8.4324 8,8.9376 l 0,7.0867 c 0,0.5523 0.4477,1 1,1 0.5523,0 1,-0.4477 1,-1 l 0,-7.0867 c 4.4907,-0.5052 8,-4.3124 8,-8.9376 l 0,-4.0242 c -10e-5,-0.5236 -0.4764,-0.9999 -1,-1 l -3,0 0,-5.0242 c 0,-0.5523 -0.4477,-1 -1,-1 -0.5523,0 -1,0.4477 -1,1 l 0,5.0242 -6,0 0,-5.0242 c 0,-0.5523 -0.4477,-1 -1,-1 z m -3,8.0242 14,0 0,3.0242 c 0,3.8953 -3.1047,7 -7,7 -3.8953,0 -7,-3.1047 -7,-7 z"
         style="color:#000000;text-indent:0;text-transform:none;direction:ltr;block-progression:tb;baseline-shift:baseline;display:inline;overflow:visible;visibility:visible;fill:#4d4d4d;fill-opacity:1;stroke:none;marker:none;enable-background:accumulate"
         inkscape:connector-curvature="0" />
    </g>
    <g
       style="color:#000000;font-style:normal;font-variant:normal;font-weight:normal;font-stretch:normal;font-size:55.87054825px;line-height:0%;font-family:Arial;-inkscape-font-specification:'Arial, Normal';text-indent:0;text-align:center;text-decoration:none;text-decoration-line:none;text-decoration-style:solid;text-decoration-color:#000000;letter-spacing:0px;word-spacing:0px;text-transform:none;direction:ltr;block-progression:tb;writing-mode:lr-tb;baseline-shift:baseline;text-anchor:middle;white-space:normal;clip-rule:nonzero;display:inline;overflow:visible;visibility:visible;opacity:1;isolation:auto;mix-blend-mode:normal;color-interpolation:sRGB;color-interpolation-filters:linearRGB;solid-color:#000000;solid-opacity:1;fill:#803300;fill-opacity:1;fill-rule:nonzero;stroke:none;stroke-width:1px;stroke-linecap:butt;stroke-linejoin:miter;stroke-miterlimit:4;stroke-dasharray:none;stroke-dashoffset:0;stroke-opacity:1;marker:none;color-rendering:auto;image-rendering:auto;shape-rendering:auto;text-rendering:auto;enable-background:accumulate"
       id="text4140">
      <path
         d="m 199.16249,482.58503 0,-33.85755 c 0,-1.11741 0,-2.45831 -2.17895,-2.45831 -2.17895,0 -2.17895,1.3409 -2.17895,2.45831 l 0,11.17411 c -2.23482,-3.07288 -5.19596,-4.52552 -8.43645,-4.52552 -7.09556,0 -13.4648,6.42512 -13.4648,15.14092 0,8.49233 5.92227,15.08505 12.90609,15.08505 4.52552,0 7.37491,-2.90527 8.88342,-5.19596 l 0,2.17895 c 0,1.17328 0,2.4583 2.23482,2.4583 2.23482,0 2.23482,-1.28502 2.23482,-2.4583 z m -4.46964,-7.26317 c 0,1.73199 -1.00567,3.29636 -2.29069,4.52551 -1.17329,1.17329 -2.73766,2.23483 -5.14009,2.23483 -4.58139,0 -9.88909,-3.29637 -9.88909,-11.56521 0,-8.32471 5.75467,-11.62107 10.6154,-11.62107 2.90527,0 4.86074,1.62024 5.97815,3.29636 0.72632,1.00567 0.72632,1.17328 0.72632,2.17895 l 0,10.95063 z"
         style="font-style:normal;font-variant:normal;font-weight:normal;font-stretch:normal;font-family:'Latin Modern Sans Quotation';-inkscape-font-specification:'Latin Modern Sans Quotation';fill:#803300;fill-opacity:1"
         id="path4182" />
      <path
         d="m 214.69451,482.58503 0,-24.19195 c 0,-1.11741 0,-2.4583 -2.17895,-2.4583 -2.17896,0 -2.17896,1.34089 -2.17896,2.4583 l 0,24.19195 c 0,1.11741 0,2.4583 2.17896,2.4583 2.17895,0 2.17895,-1.34089 2.17895,-2.4583 z m 0.61457,-33.68994 c 0,-2.40243 -1.28502,-2.40243 -2.4583,-2.40243 l -0.55871,0 c -1.17328,0 -2.4583,0 -2.4583,2.40243 0,2.23482 0.9498,2.4583 2.51417,2.4583 l 0.44697,0 c 1.56437,0 2.51417,-0.22348 2.51417,-2.4583 z"
         style="font-style:normal;font-variant:normal;font-weight:normal;font-stretch:normal;font-family:'Latin Modern Sans Quotation';-inkscape-font-specification:'Latin Modern Sans Quotation';fill:#803300;fill-opacity:1"
         id="path4184" />
      <path
         d="m 249.68867,457.2198 c 0,-1.28502 -1.22915,-1.28502 -1.62024,-1.28502 -0.50284,0 -2.12308,0 -2.96114,2.01134 l -9.27451,22.73931 -9.21864,-22.62757 c -0.33523,-0.78219 -0.89393,-2.12308 -3.01701,-2.12308 -0.44697,0 -1.67612,0 -1.67612,1.28502 0,0.3911 0.11174,0.72632 0.27935,1.06154 l 10.16844,24.80653 c 0.89393,2.12308 2.12308,2.12308 3.46398,2.12308 1.06154,0 2.57004,0 3.4081,-2.01134 l 10.16844,-24.91827 c 0.16761,-0.33522 0.27935,-0.67044 0.27935,-1.06154 z"
         style="font-style:normal;font-variant:normal;font-weight:normal;font-stretch:normal;font-family:'Latin Modern Sans Quotation';-inkscape-font-specification:'Latin Modern Sans Quotation';fill:#803300;fill-opacity:1"
         id="path4186" />
      <path
         d="m 280.78849,457.2198 c 0,-1.28502 -1.22915,-1.28502 -1.62024,-1.28502 -0.50284,0 -2.12308,0 -2.96114,2.01134 l -9.27451,22.73931 -9.21864,-22.62757 c -0.33523,-0.78219 -0.89393,-2.12308 -3.01701,-2.12308 -0.44697,0 -1.67612,0 -1.67612,1.28502 0,0.3911 0.11174,0.72632 0.27935,1.06154 l 10.16844,24.80653 c 0.89393,2.12308 2.12308,2.12308 3.46398,2.12308 1.06154,0 2.57004,0 3.4081,-2.01134 l 10.16844,-24.91827 c 0.16761,-0.33522 0.27935,-0.67044 0.27935,-1.06154 z"
         style="font-style:normal;font-variant:normal;font-weight:normal;font-stretch:normal;font-family:'Latin Modern Sans Quotation';-inkscape-font-specification:'Latin Modern Sans Quotation';fill:#803300;fill-opacity:1"
         id="path4188" />
      <path
         d="m 311.88831,457.2198 c 0,-1.28502 -1.28502,-1.28502 -1.62025,-1.28502 -1.84373,0 -2.51417,1.17328 -2.62591,1.34089 -0.11174,0.16761 -8.38059,19.55469 -9.21864,23.18628 l -0.0559,0 c -0.61458,-2.51417 -1.8996,-5.36357 -3.29637,-8.60406 l -6.08989,-13.8559 c -0.89392,-2.06721 -2.51417,-2.06721 -3.12875,-2.06721 -0.50283,0 -1.67611,0 -1.67611,1.28502 0,0.22348 0.0559,0.55871 0.16761,0.72632 l 12.17978,27.09721 c -0.67045,1.50851 -0.67045,1.62025 -0.78219,1.8996 -0.39109,0.83806 -1.34089,2.90527 -5.58705,2.90527 -1.56438,0 -3.01701,-0.22348 -4.52552,-0.61457 -0.22348,-0.11175 -0.39109,-0.11175 -0.39109,-0.11175 -0.61458,0 -0.83806,0.44697 -0.83806,0.9498 0,2.8494 0.50283,2.90527 1.11741,3.01701 1.45263,0.16762 2.90527,0.27936 4.3579,0.27936 4.80487,0 7.98949,-2.62592 9.498,-6.2575 l 12.23565,-28.88508 c 0.11174,-0.27935 0.27935,-0.61457 0.27935,-1.00567 z"
         style="font-style:normal;font-variant:normal;font-weight:normal;font-stretch:normal;font-family:'Latin Modern Sans Quotation';-inkscape-font-specification:'Latin Modern Sans Quotation';fill:#803300;fill-opacity:1"
         id="path4190" />
    </g>
    <path
       style="color:#000000;clip-rule:nonzero;display:inline;overflow:visible;visibility:visible;opacity:1;isolation:auto;mix-blend-mode:normal;color-interpolation:sRGB;color-interpolation-filters:linearRGB;solid-color:#000000;solid-opacity:1;fill:#aa4400;fill-opacity:1;fill-rule:nonzero;stroke:none;stroke-width:4;stroke-linecap:square;stroke-linejoin:miter;stroke-miterlimit:4;stroke-dasharray:none;stroke-dashoffset:0;stroke-opacity:1;marker:none;color-rendering:auto;image-rendering:auto;shape-rendering:auto;text-rendering:auto;enable-background:accumulate"
       d="m 28.511999,59.88316 c 0,-3.822243 0.0809,-4.798846 0.529986,-6.398198 0.665491,-2.370024 1.81965,-4.317438 3.619019,-6.106375 6.686144,-6.647382 18.10469,-4.770746 22.273918,3.660714 1.276986,2.58246 1.521455,4.062481 1.522743,9.21875 l 7.63e-4,3.058036 -13.973214,0 -13.973215,0 0,-3.432927 z"
       id="path4171"
       inkscape:connector-curvature="0"
       transform="translate(79.847918,429.23846)" />
    <path
       style="color:#000000;clip-rule:nonzero;display:inline;overflow:visible;visibility:visible;opacity:1;isolation:auto;mix-blend-mode:normal;color-interpolation:sRGB;color-interpolation-filters:linearRGB;solid-color:#000000;solid-opacity:1;fill:#d45500;fill-opacity:1;fill-rule:nonzero;stroke:none;stroke-width:4;stroke-linecap:square;stroke-linejoin:miter;stroke-miterlimit:4;stroke-dasharray:none;stroke-dashoffset:0;stroke-opacity:1;marker:none;color-rendering:auto;image-rendering:auto;shape-rendering:auto;text-rendering:auto;enable-background:accumulate"
       d="M 65.119142,36.968185 C 59.177688,36.305096 54.276404,31.859149 53.058763,26.028235 52.796059,24.770226 52.712707,23.335969 52.710454,20.034836 l -0.002,-2.96875 13.980457,0 13.980456,0 -0.03964,3.950893 c -0.03572,3.559984 -0.05787,4.036153 -0.22382,4.812611 -0.404963,1.894702 -1.108607,3.570813 -2.170101,5.169282 -0.688694,1.037081 -2.404717,2.780476 -3.467562,3.522873 -2.765354,1.931598 -6.279275,2.822522 -9.649074,2.44644 z"
       id="path4173"
       inkscape:connector-curvature="0"
       transform="translate(79.847918,429.23846)" />
    <path
       style="color:#000000;clip-rule:nonzero;display:inline;overflow:visible;visibility:visible;opacity:1;isolation:auto;mix-blend-mode:normal;color-interpolation:sRGB;color-interpolation-filters:linearRGB;solid-color:#000000;solid-opacity:1;fill:#803300;fill-opacity:1;fill-rule:nonzero;stroke:none;stroke-width:4;stroke-linecap:square;stroke-linejoin:miter;stroke-miterlimit:4;stroke-dasharray:none;stroke-dashoffset:0;stroke-opacity:1;marker:none;color-rendering:auto;image-rendering:auto;shape-rendering:auto;text-rendering:auto;enable-background:accumulate"
       d="M 17.351285,36.995526 C 14.215787,36.591929 11.521836,35.321938 9.3326211,33.215341 7.2629425,31.22377 6.0250529,29.049218 5.3359449,26.19454 l -0.2465404,-1.021311 -0.036156,-4.084821 -0.036156,-4.084822 13.9860343,0 13.986035,0 -0.03661,4.040179 c -0.03388,3.739047 -0.05101,4.104455 -0.229819,4.902551 -0.633792,2.828923 -1.840132,5.037823 -3.847656,7.045345 -1.53132,1.531321 -2.879809,2.416551 -4.824954,3.167397 -2.023468,0.781078 -4.615073,1.104687 -6.698835,0.836468 z"
       id="path4175"
       inkscape:connector-curvature="0"
       transform="translate(79.847918,429.23846)" />
    <text
       sodipodi:linespacing="0%"
       id="text4177"
       y="565.04333"
       x="241.74327"
       style="color:#000000;font-style:normal;font-variant:normal;font-weight:normal;font-stretch:normal;font-size:55.87054825px;line-height:0%;font-family:Arial;-inkscape-font-specification:'Arial, Normal';text-indent:0;text-align:center;text-decoration:none;text-decoration-line:none;text-decoration-style:solid;text-decoration-color:#000000;letter-spacing:0px;word-spacing:0px;text-transform:none;direction:ltr;block-progression:tb;writing-mode:lr-tb;baseline-shift:baseline;text-anchor:middle;white-space:normal;clip-rule:nonzero;display:inline;overflow:visible;visibility:visible;opacity:1;isolation:auto;mix-blend-mode:normal;color-interpolation:sRGB;color-interpolation-filters:linearRGB;solid-color:#000000;solid-opacity:1;fill:#ececec;fill-opacity:1;fill-rule:nonzero;stroke:none;stroke-width:1px;stroke-linecap:butt;stroke-linejoin:miter;stroke-miterlimit:4;stroke-dasharray:none;stroke-dashoffset:0;stroke-opacity:1;marker:none;color-rendering:auto;image-rendering:auto;shape-rendering:auto;text-rendering:auto;enable-background:accumulate"
       xml:space="preserve"><tspan
         style="font-style:normal;font-variant:normal;font-weight:normal;font-stretch:normal;font-family:'Latin Modern Sans Quotation';-inkscape-font-specification:'Latin Modern Sans Quotation';fill:#ececec"
         y="565.04333"
         x="241.74327"
         id="tspan4179"
         sodipodi:role="line">divvy</tspan></text>
  </g>
</svg>
