<?xml version="1.0" encoding="UTF-8" standalone="no"?>
<!-- Created with Inkscape (http://www.inkscape.org/) -->

<svg
   xmlns:dc="http://purl.org/dc/elements/1.1/"
   xmlns:cc="http://creativecommons.org/ns#"
   xmlns:rdf="http://www.w3.org/1999/02/22-rdf-syntax-ns#"
   xmlns:svg="http://www.w3.org/2000/svg"
   xmlns="http://www.w3.org/2000/svg"
   xmlns:sodipodi="http://sodipodi.sourceforge.net/DTD/sodipodi-0.dtd"
   xmlns:inkscape="http://www.inkscape.org/namespaces/inkscape"
   width="83.705765"
   height="78.406097"
   viewBox="0 0 83.705764 78.406097"
   id="svg4826"
   version="1.1"
   inkscape:version="0.91 r13725"
   sodipodi:docname="logo_divvy.svg">
  <defs
     id="defs4828" />
  <sodipodi:namedview
     id="base"
     pagecolor="#ffffff"
     bordercolor="#666666"
     borderopacity="1.0"
     inkscape:pageopacity="0.0"
     inkscape:pageshadow="2"
     inkscape:zoom="1.4"
     inkscape:cx="299.89294"
     inkscape:cy="-27.907352"
     inkscape:document-units="px"
     inkscape:current-layer="layer1"
     showgrid="false"
     fit-margin-top="0"
     fit-margin-left="0"
     fit-margin-right="0"
     fit-margin-bottom="0"
     units="px" />
  <metadata
     id="metadata4831">
    <rdf:RDF>
      <cc:Work
         rdf:about="">
        <dc:format>image/svg+xml</dc:format>
        <dc:type
           rdf:resource="http://purl.org/dc/dcmitype/StillImage" />
        <dc:title></dc:title>
      </cc:Work>
    </rdf:RDF>
  </metadata>
  <g
     inkscape:label="Layer 1"
     inkscape:groupmode="layer"
     id="layer1"
     transform="translate(-80.847883,-430.23841)">
    <g
       id="g6136"
       transform="matrix(0.79511991,0,0,0.79511991,-964.98125,-514.94649)">
      <g
         transform="matrix(2.5152262,0,0,2.5152262,1237.3381,-1327.2827)"
         id="g6054"
         style="fill:#803300">
        <path
           inkscape:connector-curvature="0"
           style="color:#000000;text-indent:0;text-transform:none;direction:ltr;block-progression:tb;baseline-shift:baseline;display:inline;overflow:visible;visibility:visible;fill:#803300;fill-opacity:1;stroke:none;marker:none;enable-background:accumulate"
           d="m 36.000063,1000.3137 c -0.5523,0 -1,0.4477 -1,1 l 0,5.0242 -3,0 c -0.6233,0.01 -1.0081,0.537 -1,1 l 0,4.0242 c 0,4.6252 3.5093,8.4324 8,8.9376 l 0,7.0867 c 0,0.5523 0.4477,1 1,1 0.5523,0 1,-0.4477 1,-1 l 0,-7.0867 c 4.4907,-0.5052 8,-4.3124 8,-8.9376 l 0,-4.0242 c -10e-5,-0.5236 -0.4764,-0.9999 -1,-1 l -3,0 0,-5.0242 c 0,-0.5523 -0.4477,-1 -1,-1 -0.5523,0 -1,0.4477 -1,1 l 0,5.0242 -6,0 0,-5.0242 c 0,-0.5523 -0.4477,-1 -1,-1 z m -3,8.0242 14,0 0,3.0242 c 0,3.8953 -3.1047,7 -7,7 -3.8953,0 -7,-3.1047 -7,-7 z"
           visibility="visible"
           display="inline"
           overflow="visible"
           id="path6056"
           sodipodi:nodetypes="sscccscssscscccsssccssccsssc" />
      </g>
      <g
         id="g6088"
         transform="matrix(2.5152262,0,0,2.5152262,1297.3381,-1327.2827)"
         style="fill:#d45500">
        <path
           sodipodi:nodetypes="sscccscssscscccsssccssccsssc"
           id="path6090"
           overflow="visible"
           display="inline"
           visibility="visible"
           d="m 36.000063,1000.3137 c -0.5523,0 -1,0.4477 -1,1 l 0,5.0242 -3,0 c -0.6233,0.01 -1.0081,0.537 -1,1 l 0,4.0242 c 0,4.6252 3.5093,8.4324 8,8.9376 l 0,7.0867 c 0,0.5523 0.4477,1 1,1 0.5523,0 1,-0.4477 1,-1 l 0,-7.0867 c 4.4907,-0.5052 8,-4.3124 8,-8.9376 l 0,-4.0242 c -10e-5,-0.5236 -0.4764,-0.9999 -1,-1 l -3,0 0,-5.0242 c 0,-0.5523 -0.4477,-1 -1,-1 -0.5523,0 -1,0.4477 -1,1 l 0,5.0242 -6,0 0,-5.0242 c 0,-0.5523 -0.4477,-1 -1,-1 z m -3,8.0242 14,0 0,3.0242 c 0,3.8953 -3.1047,7 -7,7 -3.8953,0 -7,-3.1047 -7,-7 z"
           style="color:#000000;text-indent:0;text-transform:none;direction:ltr;block-progression:tb;baseline-shift:baseline;display:inline;overflow:visible;visibility:visible;fill:#d45500;fill-opacity:1;stroke:none;marker:none;enable-background:accumulate"
           inkscape:connector-curvature="0" />
      </g>
      <g
         transform="matrix(2.5152262,0,0,-2.5152262,1266.8534,3803.3569)"
         id="g6092"
         style="fill:#aa4400">
        <path
           inkscape:connector-curvature="0"
           style="color:#000000;text-indent:0;text-transform:none;direction:ltr;block-progression:tb;baseline-shift:baseline;display:inline;overflow:visible;visibility:visible;fill:#aa4400;fill-opacity:1;stroke:none;marker:none;enable-background:accumulate"
           d="m 36.000063,1000.3137 c -0.5523,0 -1,0.4477 -1,1 l 0,5.0242 -3,0 c -0.6233,0.01 -1.0081,0.537 -1,1 l 0,4.0242 c 0,4.6252 3.5093,8.4324 8,8.9376 l 0,7.0867 c 0,0.5523 0.4477,1 1,1 0.5523,0 1,-0.4477 1,-1 l 0,-7.0867 c 4.4907,-0.5052 8,-4.3124 8,-8.9376 l 0,-4.0242 c -10e-5,-0.5236 -0.4764,-0.9999 -1,-1 l -3,0 0,-5.0242 c 0,-0.5523 -0.4477,-1 -1,-1 -0.5523,0 -1,0.4477 -1,1 l 0,5.0242 -6,0 0,-5.0242 c 0,-0.5523 -0.4477,-1 -1,-1 z m -3,8.0242 14,0 0,3.0242 c 0,3.8953 -3.1047,7 -7,7 -3.8953,0 -7,-3.1047 -7,-7 z"
           visibility="visible"
           display="inline"
           overflow="visible"
           id="path6094"
           sodipodi:nodetypes="sscccscssscscccsssccssccsssc" />
      </g>
    </g>
  </g>
</svg>
