<?xml version="1.0" encoding="UTF-8" standalone="no"?>
<!-- Created with Inkscape (http://www.inkscape.org/) -->

<svg
   xmlns:dc="http://purl.org/dc/elements/1.1/"
   xmlns:cc="http://creativecommons.org/ns#"
   xmlns:rdf="http://www.w3.org/1999/02/22-rdf-syntax-ns#"
   xmlns:svg="http://www.w3.org/2000/svg"
   xmlns="http://www.w3.org/2000/svg"
   xmlns:sodipodi="http://sodipodi.sourceforge.net/DTD/sodipodi-0.dtd"
   xmlns:inkscape="http://www.inkscape.org/namespaces/inkscape"
   width="16"
   height="16"
   viewBox="0 0 16 15.999999"
   id="svg4198"
   version="1.1"
   inkscape:version="0.91 r13725"
   sodipodi:docname="favicon_looper.svg"
   inkscape:export-filename="/home/nsheff/code/looper/doc/source/_static/favicon_looper.ico"
   inkscape:export-xdpi="361.7515"
   inkscape:export-ydpi="361.7515">
  <defs
     id="defs4200" />
  <sodipodi:namedview
     id="base"
     pagecolor="#ffffff"
     bordercolor="#666666"
     borderopacity="1.0"
     inkscape:pageopacity="0.0"
     inkscape:pageshadow="2"
     inkscape:zoom="11.313708"
     inkscape:cx="18.537558"
     inkscape:cy="17.80097"
     inkscape:document-units="px"
     inkscape:current-layer="layer1"
     showgrid="false"
     fit-margin-top="0"
     fit-margin-left="0"
     fit-margin-right="0"
     fit-margin-bottom="0"
     units="px" />
  <metadata
     id="metadata4203">
    <rdf:RDF>
      <cc:Work
         rdf:about="">
        <dc:format>image/svg+xml</dc:format>
        <dc:type
           rdf:resource="http://purl.org/dc/dcmitype/StillImage" />
        <dc:title></dc:title>
      </cc:Work>
    </rdf:RDF>
  </metadata>
  <g
     inkscape:label="Layer 1"
     inkscape:groupmode="layer"
     id="layer1"
     transform="translate(-288.12592,-899.01799)">
    <path
       sodipodi:nodetypes="cccccssssssssccccccccccsccccccccccccccccccccccccc"
       inkscape:connector-curvature="0"
       d="m 303.55647,912.60404 c -0.43104,-0.92769 -0.96116,-2.43458 -1.04537,-3.62241 l -0.0545,-0.7559 -0.84719,1.79157 -1.84303,-1.82593 0.97848,0 c 0.70847,0 1.28813,-0.57428 1.28813,-1.27619 l 0,-6.36392 c 0,-0.70192 -0.57966,-1.2762 -1.28813,-1.2762 l -8.28914,0 c -0.70849,0 -1.28816,0.57428 -1.28816,1.2762 l 0,6.36392 c 0,0.70191 0.57967,1.27619 1.28816,1.27619 l 0.35671,0 -1.84303,1.82593 -0.8472,-1.79157 -0.0544,0.7559 c -0.0841,1.18783 -0.61434,2.69472 -1.04536,3.62241 l -0.22294,0.48103 0.48552,-0.22088 c 0.93638,-0.42703 2.45737,-0.95223 3.65633,-1.03567 l 0.76297,-0.0541 -1.80834,-0.83935 2.71995,-2.69472 c 0.0149,-0.0147 0.0297,-0.0343 0.0446,-0.0541 l 0.98617,0 0,3.09232 -1.87772,-0.67246 0.50536,0.56937 c 0.78775,0.89824 1.48632,2.33151 1.84798,3.29356 l 0.18827,0.49574 0.1833,-0.49574 c 0.35672,-0.95714 1.05529,-2.39532 1.84799,-3.29356 l 0.50535,-0.56937 -1.87772,0.67246 0,-3.09232 0.9391,0 c 0.0149,0.0196 0.0297,0.0343 0.0446,0.0541 l 2.71996,2.69472 -1.80834,0.83935 0.76296,0.0541 c 1.19895,0.0835 2.71996,0.60864 3.65632,1.03567 l 0.48554,0.22088 z m -11.00168,-11.95461 8.09593,0 0,6.16759 -8.09593,0 z"
       id="path4168"
       style="fill:#5f8dd3;stroke:#ffffff;stroke-width:1;stroke-miterlimit:4;stroke-dasharray:none" />
    <path
       style="fill:#5f8dd3;stroke:#ffffff;stroke-width:0.1608749;stroke-miterlimit:4;stroke-dasharray:none"
       id="path4167"
       d="m 303.55647,912.60404 c -0.43104,-0.92769 -0.96116,-2.43458 -1.04537,-3.62241 l -0.0545,-0.7559 -0.84719,1.79157 -1.84303,-1.82593 0.97848,0 c 0.70847,0 1.28813,-0.57428 1.28813,-1.27619 l 0,-6.36392 c 0,-0.70192 -0.57966,-1.2762 -1.28813,-1.2762 l -8.28914,0 c -0.70849,0 -1.28816,0.57428 -1.28816,1.2762 l 0,6.36392 c 0,0.70191 0.57967,1.27619 1.28816,1.27619 l 0.35671,0 -1.84303,1.82593 -0.8472,-1.79157 -0.0544,0.7559 c -0.0841,1.18783 -0.61434,2.69472 -1.04536,3.62241 l -0.22294,0.48103 0.48552,-0.22088 c 0.93638,-0.42703 2.45737,-0.95223 3.65633,-1.03567 l 0.76297,-0.0541 -1.80834,-0.83935 2.71995,-2.69472 c 0.0149,-0.0147 0.0297,-0.0343 0.0446,-0.0541 l 0.98617,0 0,3.09232 -1.87772,-0.67246 0.50536,0.56937 c 0.78775,0.89824 1.48632,2.33151 1.84798,3.29356 l 0.18827,0.49574 0.1833,-0.49574 c 0.35672,-0.95714 1.05529,-2.39532 1.84799,-3.29356 l 0.50535,-0.56937 -1.87772,0.67246 0,-3.09232 0.9391,0 c 0.0149,0.0196 0.0297,0.0343 0.0446,0.0541 l 2.71996,2.69472 -1.80834,0.83935 0.76296,0.0541 c 1.19895,0.0835 2.71996,0.60864 3.65632,1.03567 l 0.48554,0.22088 z m -11.00168,-11.95461 8.09593,0 0,6.16759 -8.09593,0 z"
       inkscape:connector-curvature="0"
       sodipodi:nodetypes="cccccssssssssccccccccccsccccccccccccccccccccccccc" />
  </g>
</svg>
